<svg width="20" height="34" viewBox="0 0 20 34" fill="none" xmlns="http://www.w3.org/2000/svg">
<path opacity="0.1" d="M16.6257 33.6923H3.37433C2.20932 33.6923 1.26495 32.7479 1.26495 31.5829V4.81641C1.26495 3.6514 2.20932 2.70703 3.37433 2.70703H16.6257C17.7907 2.70703 18.7351 3.6514 18.7351 4.81641V31.5828C18.7351 32.7478 17.7907 33.6923 16.6257 33.6923Z" fill="#2626BC"/>
<path d="M16.6257 32.0048H3.37433C2.20932 32.0048 1.26495 31.0604 1.26495 29.8954V3.12891C1.26495 1.9639 2.20932 1.01953 3.37433 1.01953H16.6257C17.7907 1.01953 18.7351 1.9639 18.7351 3.12891V29.8953C18.7351 31.0603 17.7907 32.0048 16.6257 32.0048Z" fill="#6583FE"/>
<path d="M1.26511 4.03662H18.735V28.9877H1.26511V4.03662Z" fill="#2D58E0"/>
<path d="M8.82052 13.1971H5.23859C4.85025 13.1971 4.53546 12.8823 4.53546 12.4939V9.18848C4.53546 8.80014 4.85025 8.48535 5.23859 8.48535H8.82052C9.20885 8.48535 9.52364 8.80014 9.52364 9.18848V12.4939C9.52364 12.8823 9.20885 13.1971 8.82052 13.1971Z" fill="#1F50C9"/>
<path d="M14.7914 13.1774H11.2094C10.8211 13.1774 10.5063 12.8626 10.5063 12.4743V9.16882C10.5063 8.78049 10.8211 8.4657 11.2094 8.4657H14.7914C15.1797 8.4657 15.4945 8.78049 15.4945 9.16882V12.4743C15.4945 12.8626 15.1797 13.1774 14.7914 13.1774Z" fill="#1F50C9"/>
<path d="M18.7151 8.4657V13.1773H17.1999C16.8117 13.1773 16.4967 12.8623 16.4967 12.4742V9.16882C16.4967 8.7807 16.8117 8.4657 17.1999 8.4657H18.7151Z" fill="#1F50C9"/>
<path d="M13.7856 5.54333H6.21439C6.02025 5.54333 5.86282 5.70076 5.86282 5.8949C5.86282 6.08903 6.02025 6.24646 6.21439 6.24646H13.7856C13.9798 6.24646 14.1372 6.08903 14.1372 5.8949C14.1372 5.70076 13.9798 5.54333 13.7856 5.54333Z" fill="white"/>
<path d="M8.82052 12.458H5.23859C4.85025 12.458 4.53546 12.1433 4.53546 11.7549V8.44946C4.53546 8.06113 4.85025 7.74634 5.23859 7.74634H8.82052C9.20885 7.74634 9.52364 8.06113 9.52364 8.44946V11.7549C9.52364 12.1433 9.20885 12.458 8.82052 12.458Z" fill="#FF7EB8"/>
<path d="M8.07303 10.9888H6.6189C6.42476 10.9888 6.26733 11.1462 6.26733 11.3403C6.26733 11.5345 6.42476 11.6919 6.6189 11.6919H8.07303C8.26716 11.6919 8.42459 11.5345 8.42459 11.3403C8.42459 11.1462 8.26716 10.9888 8.07303 10.9888Z" fill="white"/>
<path d="M8.07303 9.84058H7.67358C7.47945 9.84058 7.32202 9.99801 7.32202 10.1921C7.32202 10.3863 7.47945 10.5437 7.67358 10.5437H8.07303C8.26716 10.5437 8.42459 10.3863 8.42459 10.1921C8.42459 9.99801 8.26716 9.84058 8.07303 9.84058Z" fill="white"/>
<path d="M14.7914 12.4382H11.2094C10.8211 12.4382 10.5063 12.1234 10.5063 11.7351V8.42957C10.5063 8.04123 10.8211 7.72644 11.2094 7.72644H14.7914C15.1797 7.72644 15.4945 8.04123 15.4945 8.42957V11.735C15.4945 12.1234 15.1797 12.4382 14.7914 12.4382Z" fill="#02FFB3"/>
<path d="M14.0439 10.9689H12.5898C12.3956 10.9689 12.2382 11.1263 12.2382 11.3204C12.2382 11.5146 12.3956 11.672 12.5898 11.672H14.0439C14.238 11.672 14.3954 11.5146 14.3954 11.3204C14.3954 11.1263 14.238 10.9689 14.0439 10.9689Z" fill="white"/>
<path d="M14.0439 9.82068H13.6444C13.4503 9.82068 13.2929 9.97811 13.2929 10.1722C13.2929 10.3664 13.4503 10.5238 13.6444 10.5238H14.0439C14.238 10.5238 14.3954 10.3664 14.3954 10.1722C14.3954 9.97811 14.238 9.82068 14.0439 9.82068Z" fill="white"/>
<path d="M18.7151 7.72656V12.4382H17.1999C16.8117 12.4382 16.4967 12.1232 16.4967 11.7351V8.42969C16.4967 8.04156 16.8117 7.72656 17.1999 7.72656H18.7151Z" fill="#9FB0FE"/>
<path d="M1.26511 28.9877V15.9982C1.26511 15.0279 2.0519 14.2404 3.02292 14.2404H16.9771C17.9482 14.2404 18.735 15.0279 18.735 15.9982V28.9877H1.26511Z" fill="white"/>
<path d="M16.6257 32.3563H3.37433C2.01737 32.3563 0.913391 31.2523 0.913391 29.8954V3.12903C0.913391 1.77207 2.01737 0.668091 3.37433 0.668091H16.6257C17.9827 0.668091 19.0866 1.77207 19.0866 3.12903V29.8955C19.0866 31.2523 17.9827 32.3563 16.6257 32.3563ZM3.37433 1.37122C2.40507 1.37122 1.61652 2.15977 1.61652 3.12903V29.8955C1.61652 30.8647 2.40507 31.6533 3.37433 31.6533H16.6257C17.595 31.6533 18.3835 30.8647 18.3835 29.8955V3.12903C18.3835 2.15977 17.595 1.37122 16.6257 1.37122H3.37433Z" fill="#2626BC"/>
<path d="M11.2293 2.94409H8.77075C8.57662 2.94409 8.41919 2.78666 8.41919 2.59253C8.41919 2.3984 8.57662 2.24097 8.77075 2.24097H11.2293C11.4234 2.24097 11.5809 2.3984 11.5809 2.59253C11.5809 2.78666 11.4234 2.94409 11.2293 2.94409Z" fill="#B7C5FF"/>
<path d="M12.8697 2.94413C13.0639 2.94413 13.2214 2.78667 13.2214 2.59243C13.2214 2.39819 13.0639 2.24072 12.8697 2.24072C12.6754 2.24072 12.518 2.39819 12.518 2.59243C12.518 2.78667 12.6754 2.94413 12.8697 2.94413Z" fill="#B7C5FF"/>
<path d="M8.4949 16.5122H7.04077C6.84664 16.5122 6.68921 16.6696 6.68921 16.8638C6.68921 17.0579 6.84664 17.2153 7.04077 17.2153H8.4949C8.68904 17.2153 8.84647 17.0579 8.84647 16.8638C8.84647 16.6696 8.68904 16.5122 8.4949 16.5122Z" fill="#00D890"/>
<path d="M15.6668 17.9377H7.04077C6.84664 17.9377 6.68921 18.0952 6.68921 18.2893C6.68921 18.4834 6.84664 18.6409 7.04077 18.6409H15.6668C15.8609 18.6409 16.0183 18.4834 16.0183 18.2893C16.0183 18.0952 15.8609 17.9377 15.6668 17.9377Z" fill="#9FB0FE"/>
<path d="M5.00261 18.6417H3.57724C3.38311 18.6417 3.22568 18.4843 3.22568 18.2901V16.8647C3.22568 16.6706 3.38311 16.5132 3.57724 16.5132H5.00261C5.19675 16.5132 5.35418 16.6706 5.35418 16.8647V18.2901C5.35418 18.4843 5.19675 18.6417 5.00261 18.6417Z" fill="#02FFB3"/>
<path d="M8.4949 20.8677H7.04077C6.84664 20.8677 6.68921 21.0251 6.68921 21.2192C6.68921 21.4134 6.84664 21.5708 7.04077 21.5708H8.4949C8.68904 21.5708 8.84647 21.4134 8.84647 21.2192C8.84647 21.0251 8.68904 20.8677 8.4949 20.8677Z" fill="#FF5BA8"/>
<path d="M15.6668 22.2931H7.04077C6.84664 22.2931 6.68921 22.4505 6.68921 22.6447C6.68921 22.8388 6.84664 22.9962 7.04077 22.9962H15.6668C15.8609 22.9962 16.0183 22.8388 16.0183 22.6447C16.0183 22.4505 15.8609 22.2931 15.6668 22.2931Z" fill="#9FB0FE"/>
<path d="M5.00261 22.9962H3.57724C3.38311 22.9962 3.22568 22.8387 3.22568 22.6446V21.2192C3.22568 21.0251 3.38311 20.8677 3.57724 20.8677H5.00261C5.19675 20.8677 5.35418 21.0251 5.35418 21.2192V22.6446C5.35418 22.8387 5.19675 22.9962 5.00261 22.9962Z" fill="#FF7EB8"/>
<path d="M8.4949 25.223H7.04077C6.84664 25.223 6.68921 25.3805 6.68921 25.5746C6.68921 25.7687 6.84664 25.9261 7.04077 25.9261H8.4949C8.68904 25.9261 8.84647 25.7687 8.84647 25.5746C8.84647 25.3805 8.68904 25.223 8.4949 25.223Z" fill="#6583FE"/>
<path d="M15.6668 26.6484H7.04077C6.84664 26.6484 6.68921 26.8059 6.68921 27C6.68921 27.1941 6.84664 27.3516 7.04077 27.3516H15.6668C15.8609 27.3516 16.0183 27.1941 16.0183 27C16.0183 26.8059 15.8609 26.6484 15.6668 26.6484Z" fill="#9FB0FE"/>
<path d="M5.00261 27.3515H3.57724C3.38311 27.3515 3.22568 27.1941 3.22568 27V25.5746C3.22568 25.3805 3.38311 25.223 3.57724 25.223H5.00261C5.19675 25.223 5.35418 25.3805 5.35418 25.5746V27C5.35418 27.1941 5.19675 27.3515 5.00261 27.3515Z" fill="#9FB0FE"/>
</svg>
