<svg width="84" height="69" viewBox="0 0 84 69" fill="none" xmlns="http://www.w3.org/2000/svg">
<path d="M28.688 50.456C28.688 53.912 28.496 56.696 28.112 58.808C27.728 60.728 26.48 62.648 24.368 64.568C22.256 66.296 19.184 67.16 15.152 67.16C9.2 67.16 5.36 65.72 3.632 62.84C1.904 59.768 1.04 55.64 1.04 50.456C1.04 45.08 2 39.704 3.92 34.328C6.032 28.952 8.432 24.44 11.12 20.792C14 16.952 16.784 13.496 19.472 10.424C22.352 7.352 24.848 5.048 26.96 3.51199L29.84 1.49599L36.752 9.27199C32.912 12.536 30.032 15.8 28.112 19.064C26.384 22.136 25.52 26.456 25.52 32.024C25.52 33.752 26 36.632 26.96 40.664C28.112 44.696 28.688 47.96 28.688 50.456ZM73.904 50.456C73.904 53.912 73.712 56.696 73.328 58.808C72.944 60.728 71.696 62.648 69.584 64.568C67.472 66.296 64.4 67.16 60.368 67.16C54.416 67.16 50.576 65.72 48.848 62.84C47.12 59.768 46.256 55.64 46.256 50.456C46.256 45.08 47.216 39.704 49.136 34.328C51.248 28.952 53.648 24.44 56.336 20.792C59.216 16.952 62 13.496 64.688 10.424C67.568 7.352 69.968 5.048 71.888 3.51199L75.056 1.49599L81.68 9.27199C79.184 11.576 77.264 13.496 75.92 15.032C74.768 16.568 73.616 18.872 72.464 21.944C71.312 24.824 70.736 28.184 70.736 32.024C70.736 33.752 71.216 36.632 72.176 40.664C73.328 44.696 73.904 47.96 73.904 50.456Z" fill="#24116A" fill-opacity="0.12"/>
<path d="M28.112 58.808L29.0926 59.0041L29.0943 58.9955L29.0959 58.9869L28.112 58.808ZM24.368 64.568L25.0012 65.3419L25.0214 65.3255L25.0407 65.3079L24.368 64.568ZM3.632 62.84L2.76043 63.3302L2.7673 63.3425L2.77451 63.3545L3.632 62.84ZM3.92 34.328L2.98925 33.9623L2.98353 33.9769L2.97826 33.9917L3.92 34.328ZM11.12 20.792L10.32 20.192L10.3149 20.1988L11.12 20.792ZM19.472 10.424L18.7425 9.74005L18.7307 9.75257L18.7194 9.76549L19.472 10.424ZM26.96 3.51199L26.3865 2.69276L26.3791 2.69794L26.3718 2.70325L26.96 3.51199ZM29.84 1.49599L30.5874 0.831619L29.9959 0.166191L29.2665 0.676758L29.84 1.49599ZM36.752 9.27199L37.3997 10.0339L38.1787 9.37177L37.4994 8.60763L36.752 9.27199ZM28.112 19.064L27.2501 18.557L27.2452 18.5653L27.2404 18.5737L28.112 19.064ZM26.96 40.664L25.9872 40.8956L25.9924 40.9173L25.9985 40.9387L26.96 40.664ZM73.328 58.808L74.3086 59.0041L74.3103 58.9955L74.3119 58.9869L73.328 58.808ZM69.584 64.568L70.2172 65.3419L70.2374 65.3255L70.2567 65.3079L69.584 64.568ZM48.848 62.84L47.9764 63.3302L47.9833 63.3425L47.9905 63.3545L48.848 62.84ZM49.136 34.328L48.2052 33.9623L48.1995 33.9769L48.1943 33.9917L49.136 34.328ZM56.336 20.792L55.536 20.192L55.5309 20.1988L56.336 20.792ZM64.688 10.424L63.9585 9.74005L63.9467 9.75257L63.9354 9.76549L64.688 10.424ZM71.888 3.51199L71.3511 2.66833L71.3055 2.69736L71.2633 2.73112L71.888 3.51199ZM75.056 1.49599L75.8172 0.847519L75.2531 0.185249L74.5191 0.652321L75.056 1.49599ZM81.68 9.27199L82.3583 10.0068L83.0644 9.35502L82.4412 8.62352L81.68 9.27199ZM75.92 15.032L75.1674 14.3735L75.1426 14.4018L75.12 14.432L75.92 15.032ZM72.464 21.944L73.3925 22.3154L73.3965 22.3053L73.4003 22.2951L72.464 21.944ZM72.176 40.664L71.2032 40.8956L71.2084 40.9173L71.2145 40.9387L72.176 40.664ZM27.688 50.456C27.688 53.8835 27.4969 56.6006 27.1281 58.6291L29.0959 58.9869C29.4951 56.7913 29.688 53.9405 29.688 50.456H27.688ZM27.1314 58.6119C26.8046 60.246 25.7186 61.9887 23.6953 63.8281L25.0407 65.3079C27.2414 63.3073 28.6514 61.21 29.0926 59.0041L27.1314 58.6119ZM23.7348 63.794C21.8694 65.3203 19.0597 66.16 15.152 66.16V68.16C19.3083 68.16 22.6426 67.2717 25.0012 65.3419L23.7348 63.794ZM15.152 66.16C9.27954 66.16 5.93097 64.728 4.48949 62.3255L2.77451 63.3545C4.78904 66.712 9.12047 68.16 15.152 68.16V66.16ZM4.50358 62.3497C2.89025 59.4816 2.04 55.5435 2.04 50.456H0.0400019C0.0400019 55.7365 0.917751 60.0544 2.76043 63.3302L4.50358 62.3497ZM2.04 50.456C2.04 45.2015 2.97789 39.9391 4.86174 34.6643L2.97826 33.9917C1.02211 39.4689 0.0400019 44.9584 0.0400019 50.456H2.04ZM4.85075 34.6936C6.93919 29.3776 9.30054 24.947 11.9251 21.3852L10.3149 20.1988C7.56346 23.933 5.12482 28.5264 2.98925 33.9623L4.85075 34.6936ZM11.92 21.392C14.7875 17.5687 17.5557 14.1327 20.2246 11.0825L18.7194 9.76549C16.0123 12.8593 13.2125 16.3353 10.32 20.192L11.92 21.392ZM20.2015 11.1079C23.0612 8.05766 25.5083 5.80424 27.5482 4.32073L26.3718 2.70325C24.1877 4.29175 21.6428 6.64632 18.7425 9.74005L20.2015 11.1079ZM27.5335 4.33122L30.4135 2.31522L29.2665 0.676758L26.3865 2.69276L27.5335 4.33122ZM29.0926 2.16035L36.0046 9.93635L37.4994 8.60763L30.5874 0.831619L29.0926 2.16035ZM36.1044 8.51005C32.2056 11.824 29.242 15.1707 27.2501 18.557L28.9739 19.571C30.822 16.4293 33.6184 13.248 37.3997 10.0339L36.1044 8.51005ZM27.2404 18.5737C25.393 21.8581 24.52 26.3743 24.52 32.024H26.52C26.52 26.5376 27.375 22.4139 28.9836 19.5542L27.2404 18.5737ZM24.52 32.024C24.52 33.8815 25.0272 36.8637 25.9872 40.8956L27.9328 40.4324C26.9728 36.4003 26.52 33.6225 26.52 32.024H24.52ZM25.9985 40.9387C27.1398 44.9332 27.688 48.0947 27.688 50.456H29.688C29.688 47.8253 29.0843 44.4588 27.9215 40.3893L25.9985 40.9387ZM72.904 50.456C72.904 53.8835 72.7129 56.6006 72.3441 58.6291L74.3119 58.9869C74.7111 56.7913 74.904 53.9405 74.904 50.456H72.904ZM72.3474 58.6119C72.0206 60.246 70.9347 61.9887 68.9113 63.8281L70.2567 65.3079C72.4574 63.3073 73.8674 61.21 74.3086 59.0041L72.3474 58.6119ZM68.9508 63.794C67.0854 65.3203 64.2757 66.16 60.368 66.16V68.16C64.5243 68.16 67.8586 67.2717 70.2172 65.3419L68.9508 63.794ZM60.368 66.16C54.4955 66.16 51.147 64.728 49.7055 62.3255L47.9905 63.3545C50.005 66.712 54.3365 68.16 60.368 68.16V66.16ZM49.7196 62.3497C48.1063 59.4816 47.256 55.5435 47.256 50.456H45.256C45.256 55.7365 46.1338 60.0544 47.9764 63.3302L49.7196 62.3497ZM47.256 50.456C47.256 45.2015 48.1939 39.9391 50.0777 34.6643L48.1943 33.9917C46.2381 39.4689 45.256 44.9584 45.256 50.456H47.256ZM50.0668 34.6936C52.1552 29.3776 54.5165 24.947 57.1411 21.3852L55.5309 20.1988C52.7795 23.933 50.3408 28.5264 48.2052 33.9623L50.0668 34.6936ZM57.136 21.392C60.0035 17.5687 62.7717 14.1327 65.4406 11.0825L63.9354 9.76549C61.2283 12.8593 58.4285 16.3353 55.536 20.192L57.136 21.392ZM65.4175 11.1079C68.2844 8.04996 70.647 5.78546 72.5127 4.29286L71.2633 2.73112C69.289 4.31053 66.8516 6.65403 63.9585 9.74005L65.4175 11.1079ZM72.4249 4.35565L75.5929 2.33965L74.5191 0.652321L71.3511 2.66833L72.4249 4.35565ZM74.2948 2.14445L80.9188 9.92046L82.4412 8.62352L75.8172 0.847519L74.2948 2.14445ZM81.0017 8.53719C78.4943 10.8517 76.5451 12.7991 75.1674 14.3735L76.6726 15.6905C77.9829 14.1929 79.8737 12.3002 82.3583 10.0068L81.0017 8.53719ZM75.12 14.432C73.8846 16.0791 72.693 18.4853 71.5277 21.5929L73.4003 22.2951C74.539 19.2587 75.6514 17.0568 76.72 15.632L75.12 14.432ZM71.5355 21.5726C70.3265 24.5952 69.736 28.0861 69.736 32.024H71.736C71.736 28.2819 72.2975 25.0528 73.3925 22.3154L71.5355 21.5726ZM69.736 32.024C69.736 33.8815 70.2432 36.8637 71.2032 40.8956L73.1488 40.4324C72.1888 36.4003 71.736 33.6225 71.736 32.024H69.736ZM71.2145 40.9387C72.3558 44.9332 72.904 48.0947 72.904 50.456H74.904C74.904 47.8253 74.3003 44.4588 73.1375 40.3893L71.2145 40.9387Z" fill="#24116A" fill-opacity="0.48"/>
</svg>
